#!OML:ASF E:\Steps\Project 1\Capture day 1\Session 2\Subject.ASF
:FULLY-SPECIFIED
:DEGREES
334
root 12.1595 17.2732 17.6115 -150.865 0.872017 177.288
lowerback -19.1567 -2.58563 -3.84173
upperback 2.76103 -2.5907 0.590508
thorax 14.1718 -1.52276 2.05219
lowerneck 0.386415 -4.69692 0.473932
upperneck 14.7228 -5.4005 -1.20127
head 4.76311 -2.36689 -0.676655
rclavicle 2.75193e-015 -5.90142e-015
rhumerus -34.4634 -15.8327 -80.9183
rradius 35.6122
rwrist -7.06331
rhand -5.53278 -55.1025
rfingers 7.12502
rthumb 20.2814 -84.0636
lclavicle 2.75193e-015 -5.90142e-015
lhumerus -33.1449 3.57052 75.0147
lradius 34.777
lwrist 0.749908
lhand -21.5655 -11.5468
lfingers 7.12502
lthumb 4.82833 18.3782
rfemur -33.3531 5.8981 18.5383
rtibia 13.6006
rfoot -17.6075 2.93699
rtoes -23.9637
lfemur -32.5305 -9.35186 -22.238
ltibia 13.8363
lfoot -5.59953 0.0856089
ltoes -4.40093
335
root 12.1656 17.2761 17.5891 -150.997 0.817936 177.253
lowerback -19.4784 -2.56487 -3.92137
upperback 2.72285 -2.51529 0.515371
thorax 14.3129 -1.48918 2.02807
lowerneck 0.237533 -4.72177 0.467676
upperneck 14.9305 -5.41504 -1.23955
head 4.86935 -2.36928 -0.696922
rclavicle -2.7718e-014 9.86469e-015
rhumerus -34.6875 -15.9698 -80.829
rradius 35.3354
rwrist -7.0436
rhand -5.36178 -54.8242
rfingers 7.12502
rthumb 20.4458 -83.7677
lclavicle -2.7718e-014 9.86469e-015
lhumerus -32.9689 3.46111 75.1416
lradius 34.8461
lwrist 0.789628
lhand -21.605 -11.5324
lfingers 7.12502
lthumb 4.79019 18.3935
rfemur -32.893 5.83418 18.5639
rtibia 13.1853
rfoot -17.491 3.10734
rtoes -23.1849
lfemur -31.9717 -9.53723 -22.194
ltibia 13.1705
lfoot -5.45632 0.204911
ltoes -2.11021
336
root 12.171 17.2761 17.5683 -151.09 0.769246 177.273
lowerback -19.7362 -2.53921 -3.97006
upperback 2.61442 -2.45042 0.494435
thorax 14.3347 -1.45821 2.04816
lowerneck 0.164988 -4.69481 0.450039
upperneck 15.1776 -5.33047 -1.39807
head 4.97309 -2.32472 -0.750378
rclavicle -3.86885e-014 5.64051e-015
rhumerus -34.9323 -15.99 -80.6952
rradius 34.9824
rwrist -6.87818
rhand -5.55884 -55.0234
rfingers 7.12502
rthumb 20.2564 -83.9872
lclavicle -3.86885e-014 5.64051e-015
lhumerus -32.8288 3.46819 75.3497
lradius 34.8404
lwrist 0.926388
lhand -21.5995 -11.5851
lfingers 7.12502
lthumb 4.79554 18.3406
rfemur -32.4743 5.68437 18.6865
rtibia 12.7433
rfoot -17.3545 3.4683
rtoes -22.4797
lfemur -31.5316 -9.62374 -22.1184
ltibia 12.6653
lfoot -5.44343 0.225685
ltoes -2.80288
337
root 12.1782 17.2755 17.5501 -151.185 0.706609 177.301
lowerback -19.8166 -2.53341 -4.07965
upperback 2.42872 -2.41209 0.528856
thorax 14.1674 -1.44355 2.16392
lowerneck 0.196605 -4.84648 -0.107918
upperneck 15.1372 -5.56968 -0.982491
head 4.98307 -2.4548 -0.521469
rclavicle -3.01283e-015 -6.94504e-015
rhumerus -35.3221 -15.6884 -80.561
rradius 34.7353
rwrist -6.8948
rhand -5.68445 -55.0904
rfingers 7.12502
rthumb 20.1357 -84.0669
lclavicle -3.01283e-015 -6.94504e-015
lhumerus -32.7537 3.62154 75.6288
lradius 34.7744
lwrist 0.860515
lhand -21.6719 -11.5554
lfingers 7.12502
lthumb 4.72555 18.3719
rfemur -32.1 5.62506 18.7983
rtibia 12.3844
rfoot -17.2664 3.55419
rtoes -22.239
lfemur -31.1036 -9.60372 -22.0652
ltibia 12.1798
lfoot -5.41998 0.141659
ltoes -6.14272
338
root 12.1872 17.2735 17.5339 -151.231 0.662396 177.322
lowerback -20.2519 -2.48467 -4.1573
upperback 2.40362 -2.37278 0.496674
thorax 14.3928 -1.46004 2.16605
lowerneck 0.393886 -4.67519 -0.105544
upperneck 14.8298 -5.35425 -0.993984
head 4.82836 -2.35666 -0.506329
rclavicle 9.86469e-015 -2.13694e-015
rhumerus -35.3991 -15.5706 -80.5819
rradius 34.421
rwrist -6.82056
rhand -5.56313 -54.9367
rfingers 7.12502
rthumb 20.2523 -83.9008
lclavicle 9.86469e-015 -2.13694e-015
lhumerus -32.3996 3.74021 75.8163
lradius 34.6249
lwrist 0.702959
lhand -21.7593 -11.8671
lfingers 7.12502
lthumb 4.64115 18.062
rfemur -31.8288 5.74666 18.8525
rtibia 12.1201
rfoot -17.089 3.53352
rtoes -21.1959
lfemur -30.7504 -9.48953 -22.0354
ltibia 11.7555
lfoot -5.34408 -0.0294989
ltoes -5.82575
339
root 12.195 17.2694 17.5178 -151.259 0.649997 177.389
lowerback -20.5242 -2.43956 -4.18677
upperback 2.29092 -2.29704 0.474833
thorax 14.4143 -1.42737 2.1772
lowerneck 0.294434 -4.65906 -0.0623094
upperneck 14.8375 -5.31305 -1.18156
head 4.84364 -2.34365 -0.57833
rclavicle -8.31168e-015 4.12478e-015
rhumerus -35.5192 -15.4905 -80.534
rradius 33.9898
rwrist -6.61595
rhand -5.23354 -54.5257
rfingers 7.12502
rthumb 20.569 -83.456
lclavicle -8.31168e-015 4.12478e-015
lhumerus -32.1617 3.52794 76.0625
lradius 34.5388
lwrist 1.06156
lhand -21.6733 -12.4182
lfingers 7.12502
lthumb 4.72424 17.5092
rfemur -31.5648 5.60292 19.0586
rtibia 11.8292
rfoot -16.8983 3.7282
rtoes -20.7099
lfemur -30.4334 -9.35296 -21.9705
ltibia 11.3675
lfoot -5.23213 -0.128304
ltoes -3.07489
340
root 12.2026 17.2646 17.5007 -151.289 0.697412 177.458
lowerback -20.8997 -2.41455 -4.1952
upperback 2.25475 -2.13922 0.403528
thorax 14.5806 -1.31488 2.15434
lowerneck -0.0559871 -4.75528 0.0309229
upperneck 14.9374 -5.45153 -1.24404
head 4.94531 -2.41377 -0.633203
rclavicle -1.04362e-015 2.83268e-015
rhumerus -35.5183 -15.3621 -80.597
rradius 33.5687
rwrist -6.40431
rhand -4.91069 -54.2531
rfingers 7.12502
rthumb 20.8792 -83.1496
lclavicle -1.04362e-015 2.83268e-015
lhumerus -31.8833 3.10527 76.3327
lradius 34.6292
lwrist 1.53762
lhand -21.6244 -12.5468
lfingers 7.12502
lthumb 4.77143 17.3795
rfemur -31.3657 5.34685 19.2968
rtibia 11.6537
rfoot -16.875 3.97946
rtoes -21.0029
lfemur -30.1174 -9.11396 -21.9497
ltibia 10.961
lfoot -5.12299 -0.252413
ltoes -2.52289
341
root 12.21 17.2598 17.4812 -151.302 0.813179 177.487
lowerback -21.2952 -2.32364 -4.29148
upperback 2.14752 -1.95102 0.311533
thorax 14.6721 -1.22683 2.16163
lowerneck -0.248583 -4.84435 0.102331
upperneck 15.1029 -5.58284 -1.15245
head 5.04633 -2.46669 -0.62865
rclavicle -1.36664e-015 -7.70291e-015
rhumerus -35.7175 -15.194 -80.6448
rradius 33.2405
rwrist -6.17813
rhand -5.0037 -54.4529
rfingers 7.12502
rthumb 20.7899 -83.3591
lclavicle -1.36664e-015 -7.70291e-015
lhumerus -31.7848 2.89468 76.5473
lradius 34.7108
lwrist 1.46607
lhand -21.5718 -12.336
lfingers 7.12502
lthumb 4.8222 17.5892
rfemur -31.242 5.29514 19.3822
rtibia 11.556
rfoot -16.821 4.1855
rtoes -20.6978
lfemur -29.7467 -8.8163 -21.9879
ltibia 10.4118
lfoot -5.0539 -0.41091
ltoes -2.33618
342
root 12.2156 17.2566 17.4591 -151.415 0.889965 177.517
lowerback -21.5847 -2.24144 -4.37789
upperback 2.03609 -1.78327 0.228732
thorax 14.6971 -1.14717 2.17027
lowerneck -0.170005 -4.63962 0.282371
upperneck 15.0884 -5.29398 -1.23765
head 5.01797 -2.31464 -0.673489
rclavicle 1.07344e-014 2.18663e-015
rhumerus -35.8566 -14.9649 -80.7342
rradius 32.7943
rwrist -5.97676
rhand -5.43131 -54.8586
rfingers 7.12502
rthumb 20.379 -83.8093
lclavicle 1.07344e-014 2.18663e-015
lhumerus -31.6362 2.80513 76.7337
lradius 34.6441
lwrist 1.4536
lhand -21.4076 -11.9896
lfingers 7.12502
lthumb 4.98076 17.9319
rfemur -30.9427 5.27954 19.4525
rtibia 11.3578
rfoot -16.9348 4.23334
rtoes -21.6791
lfemur -29.1655 -8.51017 -22.0429
ltibia 9.69564
lfoot -5.01909 -0.616633
ltoes -0.548374
343
root 12.2204 17.2556 17.4382 -151.566 0.833782 177.525
lowerback -21.7796 -2.22694 -4.4518
upperback 1.98352 -1.72218 0.183902
thorax 14.7456 -1.12009 2.17978
lowerneck -0.147703 -4.49076 0.29561
upperneck 14.8516 -5.12116 -1.19271
head 4.92664 -2.23561 -0.648753
rclavicle -6.68413e-015 1.98785e-015
rhumerus -35.7097 -14.8171 -80.8218
rradius 32.1846
rwrist -5.59186
rhand -5.53487 -55.2337
rfingers 7.12502
rthumb 20.2794 -84.195
lclavicle -6.68413e-015 1.98785e-015
lhumerus -31.306 2.82218 76.9747
lradius 34.4238
lwrist 1.48511
lhand -21.4171 -11.972
lfingers 7.12502
lthumb 4.97157 17.9497
rfemur -30.469 5.16187 19.5452
rtibia 10.9265
rfoot -17.0981 4.16503
rtoes -23.4253
lfemur -28.5965 -8.0943 -22.1779
ltibia 9.08027
lfoot -4.87234 -0.962415
ltoes -0.293255
344
root 12.2267 17.2549 17.4189 -151.697 0.66739 177.477
lowerback -21.8348 -2.29173 -4.60271
upperback 1.8562 -1.76179 0.202715
thorax 14.6362 -1.14374 2.27566
lowerneck -0.0563789 -4.34499 0.222407
upperneck 14.5625 -4.92996 -1.29031
head 4.80089 -2.1593 -0.654088
rclavicle 2.80038e-014 -6.55989e-015
rhumerus -35.6721 -15.0019 -80.6028
rradius 31.5367
rwrist -4.74467
rhand -4.95803 -55.0161
rfingers 7.12502
rthumb 20.8337 -83.9175
lclavicle 2.80038e-014 -6.55989e-015
lhumerus -31.1417 2.85526 77.2999
lradius 34.1578
lwrist 1.25216
lhand -21.8011 -12.4468
lfingers 7.12502
lthumb 4.60083 17.4832
rfemur -29.9794 4.88205 19.6367
rtibia 10.4242
rfoot -16.8237 4.07778
rtoes -23.5133
lfemur -28.1677 -7.79988 -22.3172
ltibia 8.64565
lfoot -4.58542 -1.25106
ltoes -0.702416
